<svg xmlns="http://www.w3.org/2000/svg" width="58" height="43" viewBox="0 0 58 43">
  <metadata><?xpacket begin="﻿" id="W5M0MpCehiHzreSzNTczkc9d"?>
<x:xmpmeta xmlns:x="adobe:ns:meta/" x:xmptk="Adobe XMP Core 5.6-c142 79.160924, 2017/07/13-01:06:39        ">
   <rdf:RDF xmlns:rdf="http://www.w3.org/1999/02/22-rdf-syntax-ns#">
      <rdf:Description rdf:about=""/>
   </rdf:RDF>
</x:xmpmeta>
                                                                                                    
                                                                                                    
                                                                                                    
                                                                                                    
                                                                                                    
                                                                                                    
                                                                                                    
                                                                                                    
                                                                                                    
                                                                                                    
                                                                                                    
                                                                                                    
                                                                                                    
                                                                                                    
                                                                                                    
                                                                                                    
                                                                                                    
                                                                                                    
                                                                                                    
                                                                                                    
                           
<?xpacket end="w"?></metadata>
<defs>
    <style>
      .cls-1 {
        fill: #98d361;
        fill-rule: evenodd;
      }
    </style>
  </defs>
  <path class="cls-1" d="M776.207,3216.99a5.216,5.216,0,0,1-5.207-5.21v-32.55a5.218,5.218,0,0,1,5.207-5.22h47.587a5.218,5.218,0,0,1,5.206,5.22v32.55a5.216,5.216,0,0,1-5.206,5.21H776.207Zm-2.109-11.65v6.5a2.116,2.116,0,0,0,2.109,2.12h47.587a2.116,2.116,0,0,0,2.108-2.12v-7.98l-14.186-7.97-10.94,6.74a1.938,1.938,0,0,1-.842.23,1.411,1.411,0,0,1-.715-0.17l-10.9-6.14Zm0-3.67,11.118-6.82-11.118-6.32v13.14Zm40.681-7.5,11.123,6.26v-13.07Zm-40.449-9.07,0.132,0.07,13.415,7.64,4.416,2.51,7.658,4.28,7.711-4.76,4.346-2.63,13.894-8.59v-4.39a2.107,2.107,0,0,0-2.108-2.11H776.207a2.108,2.108,0,0,0-2.109,2.11v5.73" transform="translate(-771 -3174)"/>
</svg>
